<svg xmlns="http://www.w3.org/2000/svg" width="527" height="262" fill="none">
    <path fill="#fff" stroke="#888" stroke-miterlimit="10" stroke-width=".421"
        d="M526.68 1H.32v260h526.36V1Z" />
    <path fill="#353E54"
        d="M147.38 115.512h6.889v3.904a10.734 10.734 0 0 1 3.992-3.342 12.535 12.535 0 0 1 5.559-1.21c2.29-.068 4.564.46 6.585 1.568a10.497 10.497 0 0 1 4.127 4.297 12.063 12.063 0 0 1 4.514-4.297 13.144 13.144 0 0 1 6.451-1.568 12.946 12.946 0 0 1 5.407.75 13.103 13.103 0 0 1 4.649 2.932 14.186 14.186 0 0 1 3.369 9.991v19.52h-7.075v-19.06a8.54 8.54 0 0 0-1.92-5.882 7.247 7.247 0 0 0-2.56-1.722 7.155 7.155 0 0 0-3.049-.46 7.399 7.399 0 0 0-2.981.529 7.48 7.48 0 0 0-2.543 1.687 8.865 8.865 0 0 0-2.207 6.564v18.344h-7.007v-19.384a8.068 8.068 0 0 0-1.92-5.66 6.995 6.995 0 0 0-2.493-1.637 7.2 7.2 0 0 0-2.931-.46 7.574 7.574 0 0 0-3.065.546 7.716 7.716 0 0 0-2.611 1.739 9.114 9.114 0 0 0-1.785 3.153 9.37 9.37 0 0 0-.455 3.615v18.088h-6.94v-32.545ZM219.673 148.704c-4.447.035-8.742-1.738-11.908-4.909a17.263 17.263 0 0 1-4.582-8.78 17.267 17.267 0 0 1 .994-9.888c.842-2.012 2.055-3.853 3.605-5.37a17.16 17.16 0 0 1 5.356-3.563 16.965 16.965 0 0 1 6.552-1.313c2.257 0 4.48.426 6.552 1.313a17.16 17.16 0 0 1 5.356 3.563 16.755 16.755 0 0 1 3.605 5.37 17.078 17.078 0 0 1 1.297 6.666c0 2.233-.421 4.449-1.264 6.512a16.987 16.987 0 0 1-3.638 5.507 17.03 17.03 0 0 1-5.474 3.665 16.664 16.664 0 0 1-6.434 1.262l-.017-.035Zm0-27.328a9.468 9.468 0 0 0-3.874.768 9.417 9.417 0 0 0-3.234 2.284c-.893.972-1.6 2.08-2.072 3.307a11.287 11.287 0 0 0 0 8.064 10.498 10.498 0 0 0 2.072 3.307 9.84 9.84 0 0 0 3.234 2.285 9.484 9.484 0 0 0 3.874.767 9.555 9.555 0 0 0 3.891-.818 9.962 9.962 0 0 0 3.183-2.251 10.68 10.68 0 0 0 2.139-3.307 10.763 10.763 0 0 0 0-8.064 10.691 10.691 0 0 0-2.139-3.307 10.214 10.214 0 0 0-3.183-2.25 9.598 9.598 0 0 0-3.891-.819v.034ZM240.609 115.512h6.873v4.228a12.237 12.237 0 0 1 4.21-3.58 12.158 12.158 0 0 1 5.778-1.296 12.695 12.695 0 0 1 5.221.818 12.713 12.713 0 0 1 4.447 2.916 14.633 14.633 0 0 1 3.503 10.433v18.992h-7.023v-18.412a9.52 9.52 0 0 0-1.988-6.393 7.082 7.082 0 0 0-2.678-1.842 7.069 7.069 0 0 0-3.2-.494 7.938 7.938 0 0 0-3.201.614 7.738 7.738 0 0 0-2.678 1.875 9.353 9.353 0 0 0-1.852 3.137 9.45 9.45 0 0 0-.523 3.631v17.901h-6.939v-32.528h.05ZM291.342 148.704a17.58 17.58 0 0 1-6.939-1.329 15.94 15.94 0 0 1-5.289-3.615 15.783 15.783 0 0 1-3.335-5.336 17.888 17.888 0 0 1-1.163-6.512c0-2.301.422-4.586 1.297-6.7a16.926 16.926 0 0 1 3.538-5.404 16.94 16.94 0 0 1 5.507-3.682 16.563 16.563 0 0 1 6.468-1.262c2.274 0 4.531.409 6.654 1.245a15.556 15.556 0 0 1 5.305 3.477 16.401 16.401 0 0 1 3.504 5.302 17.532 17.532 0 0 1 1.263 6.7v2.404h-26.933a10.278 10.278 0 0 0 3.251 6.222c1.92 1.671 4.413 2.558 6.939 2.438a9.889 9.889 0 0 0 5.609-1.5 7.945 7.945 0 0 0 3.15-4.04h7.462a17.66 17.66 0 0 1-5.946 8.49 16.636 16.636 0 0 1-10.342 3.085v.017Zm.135-27.652a9.967 9.967 0 0 0-6.182 1.978 10.49 10.49 0 0 0-3.638 5.114h19.404a9.232 9.232 0 0 0-3.403-5.267 10.287 10.287 0 0 0-6.181-1.825ZM321.155 146.352l-13.425-30.84h7.462l9.466 22.572 8.961-22.572h7.327l-19.589 47.564h-7.142l6.94-16.724ZM344.568 121.769v-21.208h7.006v14.968h6.873v6.24h-6.873v12.956c-.016 1.193.051 2.37.219 3.546.101.767.438 1.5.977 2.046.59.528 1.331.852 2.106.938 1.179.17 2.375.255 3.571.221v6.564h-1.028a24.252 24.252 0 0 1-6.165-.648 8.153 8.153 0 0 1-3.958-2.182 8.582 8.582 0 0 1-2.105-4.092 27.625 27.625 0 0 1-.623-6.342v-13.007ZM376.856 148.704c-4.446.035-8.741-1.738-11.908-4.909a17.27 17.27 0 0 1-4.581-8.78 17.267 17.267 0 0 1 .993-9.888c.843-2.012 2.055-3.853 3.605-5.37a17.172 17.172 0 0 1 5.356-3.563 16.965 16.965 0 0 1 6.552-1.313c2.257 0 4.481.426 6.552 1.313a17.177 17.177 0 0 1 5.357 3.563 16.769 16.769 0 0 1 3.604 5.37 17.078 17.078 0 0 1 1.297 6.666c0 2.233-.421 4.449-1.263 6.512a17.003 17.003 0 0 1-3.638 5.507 17.033 17.033 0 0 1-5.475 3.665 16.66 16.66 0 0 1-6.434 1.262l-.017-.035Zm0-27.328a9.472 9.472 0 0 0-3.874.768 9.426 9.426 0 0 0-3.234 2.284c-.892.972-1.6 2.08-2.071 3.307a11.276 11.276 0 0 0 0 8.064 10.495 10.495 0 0 0 2.071 3.307 9.85 9.85 0 0 0 3.234 2.285 9.487 9.487 0 0 0 3.874.767 9.551 9.551 0 0 0 3.891-.818 9.977 9.977 0 0 0 3.184-2.251 10.698 10.698 0 0 0 2.139-3.307 10.773 10.773 0 0 0 0-8.064 10.71 10.71 0 0 0-2.139-3.307 10.23 10.23 0 0 0-3.184-2.25 9.595 9.595 0 0 0-3.891-.819v.034ZM397.793 148.057h6.94v-47.496h-6.94v47.496ZM417.382 148.04h-7.007v-32.528h7.007v32.528Zm-3.503-38.137a4.427 4.427 0 0 1-1.819-.29 4.622 4.622 0 0 1-1.55-.989 4.428 4.428 0 0 1-.994-1.551 4.825 4.825 0 0 1-.303-1.824 4.767 4.767 0 0 1 .303-1.824 4.44 4.44 0 0 1 .994-1.552 4.86 4.86 0 0 1 1.55-1.005 4.689 4.689 0 0 1 1.819-.307 4.749 4.749 0 0 1 1.819.307 4.434 4.434 0 0 1 1.549 1.005c.438.444.775.972.994 1.552.219.579.32 1.21.303 1.824a4.77 4.77 0 0 1-.303 1.824 4.428 4.428 0 0 1-.994 1.551 4.842 4.842 0 0 1-1.549 1.006 4.695 4.695 0 0 1-1.819.307v-.034ZM437.577 148.704c-2.055 0-4.093-.409-5.996-1.21a16.7 16.7 0 0 1-5.154-3.376 16.123 16.123 0 0 1-3.638-5.301 17.353 17.353 0 0 1-1.348-7.041 17.938 17.938 0 0 1 1.331-7.024 16.791 16.791 0 0 1 3.571-5.336 15.21 15.21 0 0 1 5.187-3.376 16.485 16.485 0 0 1 6.131-1.176c2.106 0 4.178.426 6.098 1.296a12.39 12.39 0 0 1 4.666 3.58v-4.228h6.939v32.528h-6.939v-4.484a13.19 13.19 0 0 1-4.75 3.768 13.994 13.994 0 0 1-6.098 1.363v.017Zm.977-27.515a10.081 10.081 0 0 0-5.71 1.722 10.375 10.375 0 0 0-3.773 4.688 10.811 10.811 0 0 0-.774 4.126c0 1.432.252 2.847.774 4.159a10.146 10.146 0 0 0 2.173 3.393c.96.972 2.089 1.756 3.352 2.267 1.246.529 2.594.784 3.958.784a9.955 9.955 0 0 0 4.093-.852 10.358 10.358 0 0 0 3.251-2.284 10.72 10.72 0 0 0 2.139-3.359 11.17 11.17 0 0 0 .775-4.143c0-2.761-1.044-5.421-2.914-7.415a10.274 10.274 0 0 0-3.234-2.285 10.253 10.253 0 0 0-4.093-.852l-.017.051Z" />
    <path fill="#FF4307"
        d="M118.494 151.176h-34.21a12.431 12.431 0 0 1-8.876-3.665 12.9 12.9 0 0 1-3.74-8.967v-26.936c.034-3.376 1.365-6.615 3.74-8.985 2.358-2.369 5.558-3.699 8.876-3.665h34.21a12.434 12.434 0 0 1 8.876 3.665 12.938 12.938 0 0 1 3.739 8.985v26.936a12.897 12.897 0 0 1-3.739 8.967 12.43 12.43 0 0 1-8.876 3.665Zm-31.228-41.409c-.623 0-1.247.102-1.82.341a4.727 4.727 0 0 0-1.549 1.022 5.124 5.124 0 0 0-1.044 1.552 4.914 4.914 0 0 0-.37 1.841v21.088c0 1.262.521 2.472 1.397 3.376a4.728 4.728 0 0 0 3.335 1.381h28.314a4.746 4.746 0 0 0 4.733-4.757v-21.088a4.78 4.78 0 0 0-.859-2.694 4.748 4.748 0 0 0-2.206-1.738 4.691 4.691 0 0 0-2.779-.188 4.807 4.807 0 0 0-2.409 1.432l-7.243 8.03c-.438.477-.96.852-1.549 1.125a4.573 4.573 0 0 1-5.256-1.125l-7.242-8.03a4.776 4.776 0 0 0-1.567-1.159 4.604 4.604 0 0 0-1.903-.409h.017Z" />
    <path fill="#FF4308"
        d="M101.448 135.237h-.151c-1.33 0-2.678-.273-3.942-.785a10.435 10.435 0 0 1-3.436-2.301 10.615 10.615 0 0 1-2.307-3.461 10.623 10.623 0 0 1-.826-4.091l4.835-.035c0 .768.151 1.518.454 2.234.287.699.708 1.33 1.247 1.875a5.546 5.546 0 0 0 1.87 1.245c.69.289 1.448.409 2.189.426.758 0 1.516-.137 2.223-.426a5.732 5.732 0 0 0 3.099-3.12 6.26 6.26 0 0 0 .455-2.216l4.834.034c0 1.415-.286 2.778-.825 4.091a10.437 10.437 0 0 1-2.308 3.461 10.426 10.426 0 0 1-7.411 3.086v-.017Z" />
</svg>