<svg width="100" height="100" viewBox="0 0 654 452" fill="none"
                            xmlns="http://www.w3.org/2000/svg">
                            <g opacity="0.2">
                                <path
                                    d="M620.93 0.595459H32.3362C14.6631 0.595459 0.336182 14.9223 0.336182 32.5954V419.555C0.336182 437.228 14.6631 451.555 32.3362 451.555H620.93C638.604 451.555 652.93 437.228 652.93 419.555V32.5955C652.93 14.9223 638.604 0.595459 620.93 0.595459Z"
                                    fill="white" />
                                <path
                                    d="M652.594 0.959725V451.219H0.700509V0.959725H652.594ZM653.295 0.259216H0V451.919H653.295V0.259216Z"
                                    fill="#221F1F" />
                            </g>
                            <path
                                d="M184.065 207.274H192.528V212.009C193.817 210.272 195.498 208.871 197.431 207.946C199.561 206.938 201.886 206.433 204.24 206.489C207.042 206.405 209.844 207.05 212.31 208.395C214.468 209.599 216.233 211.421 217.382 213.606C218.755 211.421 220.66 209.627 222.93 208.395C225.367 207.106 228.085 206.461 230.859 206.489C233.101 206.321 235.371 206.629 237.5 207.386C239.63 208.142 241.563 209.375 243.188 210.944C246.074 214.279 247.56 218.622 247.335 223.049V246.726H238.649V223.61C238.789 221.004 237.949 218.454 236.295 216.464C235.399 215.54 234.334 214.839 233.129 214.363C231.952 213.915 230.663 213.718 229.402 213.802C228.141 213.774 226.909 213.999 225.732 214.447C224.555 214.895 223.518 215.596 222.621 216.492C221.669 217.557 220.912 218.818 220.464 220.191C219.988 221.564 219.819 223.021 219.931 224.45V246.698H211.329V223.189C211.469 220.696 210.629 218.23 208.976 216.324C208.107 215.456 207.07 214.783 205.921 214.335C204.772 213.887 203.54 213.718 202.335 213.774C201.046 213.746 199.757 213.971 198.552 214.447C197.347 214.923 196.254 215.652 195.358 216.549C194.377 217.669 193.62 218.958 193.144 220.387C192.668 221.788 192.472 223.273 192.584 224.758V246.698H184.065V207.246V207.274Z"
                                fill="#353E54" />
                            <path
                                d="M272.834 247.539C267.37 247.567 262.102 245.438 258.208 241.571C255.322 238.657 253.36 234.958 252.576 230.923C251.791 226.888 252.211 222.713 253.78 218.93C254.817 216.493 256.302 214.279 258.208 212.402C260.113 210.552 262.327 209.095 264.792 208.058C267.342 206.994 270.088 206.461 272.834 206.489C275.608 206.489 278.326 207.022 280.876 208.058C283.314 209.067 285.556 210.552 287.461 212.402C289.338 214.251 290.851 216.465 291.888 218.902C292.953 221.452 293.513 224.198 293.485 227C293.485 229.718 292.981 232.38 291.944 234.902C290.907 237.396 289.394 239.665 287.461 241.571C285.527 243.476 283.258 244.989 280.736 246.026C278.214 247.063 275.552 247.567 272.834 247.539ZM272.834 214.391C271.209 214.391 269.584 214.699 268.071 215.316C266.558 215.96 265.213 216.885 264.092 218.09C262.999 219.267 262.13 220.612 261.542 222.125C260.309 225.263 260.309 228.765 261.542 231.904C262.13 233.389 262.999 234.762 264.092 235.939C265.213 237.116 266.558 238.068 268.071 238.713C269.584 239.357 271.181 239.665 272.834 239.665C274.487 239.665 276.113 239.329 277.626 238.685C279.083 238.04 280.428 237.116 281.521 235.967C282.641 234.79 283.538 233.445 284.155 231.932C285.415 228.793 285.415 225.291 284.155 222.153C283.538 220.668 282.641 219.295 281.521 218.118C280.4 216.969 279.083 216.044 277.626 215.4C276.113 214.727 274.487 214.419 272.834 214.419V214.391Z"
                                fill="#353E54" />
                            <path
                                d="M298.529 207.274H306.963V212.402C308.336 210.58 310.101 209.095 312.147 208.058C314.361 206.966 316.798 206.433 319.236 206.489C321.422 206.377 323.607 206.713 325.653 207.498C327.698 208.283 329.548 209.487 331.117 211.029C334.143 214.531 335.684 219.07 335.432 223.694V246.726H326.83V224.394C326.998 221.592 326.129 218.846 324.392 216.661C323.467 215.68 322.346 214.923 321.113 214.419C319.881 213.915 318.536 213.718 317.191 213.831C315.846 213.803 314.501 214.055 313.268 214.559C312.035 215.063 310.914 215.848 309.989 216.829C308.981 217.922 308.224 219.238 307.72 220.64C307.215 222.041 307.019 223.554 307.075 225.039V246.755H298.557V207.302L298.529 207.274Z"
                                fill="#353E54" />
                            <path
                                d="M360.818 247.511C357.904 247.539 354.99 247.007 352.3 245.886C349.862 244.877 347.649 243.392 345.799 241.515C344.006 239.665 342.605 237.452 341.708 235.042C340.756 232.52 340.251 229.858 340.279 227.14C340.279 224.338 340.812 221.592 341.876 219.014C342.885 216.577 344.37 214.335 346.219 212.458C348.153 210.524 350.451 209.011 352.972 207.974C355.494 206.938 358.184 206.433 360.93 206.433C363.732 206.433 366.478 206.91 369.084 207.946C371.522 208.899 373.735 210.328 375.613 212.177C377.462 214.027 378.919 216.212 379.928 218.622C380.993 221.2 381.497 223.974 381.469 226.748V229.662H348.405C348.797 232.576 350.226 235.238 352.384 237.2C354.738 239.245 357.792 240.282 360.902 240.17C363.34 240.254 365.722 239.637 367.795 238.348C369.588 237.2 370.933 235.462 371.662 233.445H380.825C379.48 237.536 376.93 241.122 373.511 243.728C369.813 246.334 365.329 247.651 360.818 247.483V247.511ZM360.986 213.971C358.268 213.915 355.606 214.755 353.393 216.381C351.319 217.95 349.75 220.107 348.909 222.573H372.755C372.166 220.023 370.681 217.754 368.58 216.184C366.338 214.671 363.676 213.887 360.986 213.971Z"
                                fill="#353E54" />
                            <path
                                d="M397.413 244.681L380.937 207.274H390.099L401.728 234.65L412.74 207.274H421.734L397.665 264.968H388.894L397.413 244.681Z"
                                fill="#353E54" />
                            <path
                                d="M426.162 214.839V189.116H434.764V207.274H443.198V214.839H434.764V230.559C434.764 231.988 434.82 233.445 435.044 234.846C435.156 235.77 435.577 236.667 436.249 237.339C436.978 237.984 437.874 238.376 438.827 238.488C440.284 238.684 441.741 238.797 443.198 238.768V246.726H441.937C439.387 246.782 436.837 246.502 434.372 245.942C432.55 245.521 430.869 244.597 429.496 243.308C428.179 241.935 427.283 240.198 426.918 238.348C426.358 235.826 426.106 233.248 426.162 230.671V214.895V214.839Z"
                                fill="#353E54" />
                            <path
                                d="M465.783 247.539C460.319 247.567 455.051 245.438 451.156 241.571C448.27 238.657 446.308 234.958 445.524 230.923C444.739 226.888 445.16 222.713 446.729 218.93C447.765 216.493 449.25 214.279 451.156 212.402C453.061 210.552 455.303 209.095 457.741 208.058C460.291 206.994 463.037 206.461 465.783 206.489C468.557 206.489 471.275 207.022 473.824 208.058C476.262 209.067 478.504 210.552 480.409 212.402C482.287 214.251 483.8 216.465 484.836 218.902C485.901 221.452 486.462 224.198 486.434 227C486.434 229.718 485.929 232.38 484.892 234.902C483.856 237.396 482.343 239.665 480.409 241.571C478.476 243.476 476.206 244.989 473.684 246.026C471.162 247.063 468.5 247.567 465.783 247.539ZM465.783 214.391C464.157 214.391 462.532 214.699 461.019 215.316C459.506 215.96 458.161 216.885 457.04 218.09C455.947 219.267 455.079 220.612 454.49 222.125C453.285 225.263 453.285 228.765 454.49 231.904C455.079 233.389 455.947 234.762 457.04 235.939C458.161 237.116 459.506 238.068 461.019 238.713C462.532 239.357 464.129 239.665 465.783 239.665C467.436 239.665 469.061 239.329 470.574 238.685C472.031 238.04 473.376 237.116 474.469 235.967C475.59 234.79 476.486 233.445 477.103 231.932C478.364 228.793 478.364 225.291 477.103 222.153C476.486 220.668 475.59 219.295 474.469 218.118C473.348 216.969 472.031 216.044 470.574 215.4C469.061 214.727 467.436 214.419 465.783 214.419V214.391Z"
                                fill="#353E54" />
                            <path d="M491.505 246.726H500.024V189.116H491.505V246.726Z" fill="#353E54" />
                            <path
                                d="M515.574 246.727H506.972V207.274H515.574V246.727ZM511.259 200.465C510.503 200.493 509.746 200.381 509.018 200.101C508.317 199.82 507.645 199.428 507.112 198.896C506.58 198.363 506.16 197.719 505.879 197.018C505.599 196.318 505.487 195.561 505.515 194.805C505.515 194.048 505.627 193.292 505.879 192.591C506.16 191.891 506.58 191.246 507.112 190.714C507.673 190.181 508.317 189.761 509.018 189.509C509.718 189.229 510.475 189.117 511.259 189.145C512.016 189.117 512.772 189.229 513.501 189.509C514.201 189.789 514.874 190.181 515.406 190.714C515.939 191.246 516.359 191.891 516.639 192.591C516.919 193.292 517.032 194.048 517.003 194.805C517.032 195.561 516.891 196.318 516.639 197.018C516.359 197.719 515.939 198.363 515.406 198.896C514.846 199.428 514.201 199.848 513.501 200.101C512.8 200.381 512.044 200.493 511.259 200.465Z"
                                fill="#353E54" />
                            <path
                                d="M540.345 247.539C537.823 247.539 535.301 247.035 532.975 246.082C530.622 245.129 528.492 243.728 526.643 241.991C524.737 240.17 523.224 237.984 522.16 235.574C521.011 232.884 520.45 229.97 520.506 227.028C520.45 224.114 521.011 221.2 522.131 218.51C523.168 216.072 524.653 213.887 526.531 212.037C528.352 210.244 530.51 208.843 532.891 207.946C535.301 206.994 537.851 206.517 540.429 206.517C543.007 206.517 545.556 207.05 547.91 208.086C550.124 209.067 552.085 210.552 553.654 212.43V207.302H562.173V246.755H553.654V241.319C552.085 243.28 550.096 244.849 547.826 245.886C545.472 246.979 542.923 247.567 540.345 247.539ZM541.55 214.167C539.056 214.167 536.618 214.867 534.544 216.24C532.471 217.613 530.846 219.603 529.921 221.928C529.277 223.526 528.94 225.235 528.968 226.944C528.968 228.681 529.277 230.391 529.921 231.988C530.538 233.529 531.434 234.93 532.583 236.107C533.76 237.284 535.161 238.236 536.702 238.853C538.243 239.497 539.896 239.805 541.55 239.805C543.287 239.805 544.996 239.469 546.565 238.769C548.05 238.124 549.423 237.172 550.544 235.995C551.665 234.818 552.562 233.445 553.178 231.932C553.822 230.335 554.131 228.625 554.131 226.916C554.131 223.554 552.87 220.331 550.544 217.922C549.423 216.745 548.05 215.82 546.565 215.148C544.968 214.447 543.259 214.111 541.55 214.111V214.167Z"
                                fill="#353E54" />
                            <path
                                d="M148.62 250.537H106.618C102.527 250.537 98.6318 248.968 95.7177 246.082C92.8035 243.196 91.1503 239.301 91.1223 235.21V202.539C91.1503 198.448 92.8035 194.525 95.7177 191.639C98.6318 188.753 102.555 187.155 106.618 187.183H148.62C152.711 187.183 156.634 188.753 159.52 191.639C162.434 194.525 164.087 198.42 164.115 202.539V235.21C164.087 239.301 162.434 243.224 159.52 246.082C156.606 248.968 152.683 250.565 148.62 250.537ZM110.288 200.297C109.532 200.297 108.775 200.409 108.047 200.689C107.346 200.969 106.702 201.39 106.141 201.922C105.609 202.455 105.161 203.099 104.852 203.8C104.544 204.5 104.404 205.257 104.404 206.041V231.624C104.404 233.165 105.048 234.622 106.113 235.715C107.206 236.807 108.663 237.396 110.204 237.396H144.977C146.519 237.396 147.976 236.807 149.068 235.715C150.161 234.622 150.778 233.165 150.806 231.624V206.041C150.806 204.864 150.413 203.715 149.741 202.763C149.068 201.81 148.116 201.054 147.051 200.661C145.958 200.241 144.781 200.157 143.632 200.437C142.484 200.717 141.475 201.306 140.69 202.174L131.808 211.897C131.275 212.486 130.631 212.934 129.902 213.27C129.174 213.579 128.417 213.747 127.605 213.747C126.792 213.747 126.036 213.579 125.307 213.27C124.579 212.962 123.934 212.486 123.402 211.897L114.519 202.174C113.987 201.586 113.314 201.082 112.586 200.773C111.857 200.437 111.045 200.269 110.26 200.269L110.288 200.297Z"
                                fill="#FF4307" />
                            <path
                                d="M127.689 231.203C127.689 231.203 127.577 231.203 127.521 231.203C125.868 231.203 124.242 230.895 122.673 230.25C121.104 229.606 119.675 228.653 118.47 227.448C117.265 226.244 116.313 224.843 115.64 223.245C114.968 221.676 114.631 219.995 114.631 218.286H120.572C120.572 219.182 120.768 220.079 121.132 220.948C121.496 221.816 122.001 222.573 122.673 223.217C123.318 223.862 124.102 224.366 124.971 224.73C125.839 225.067 126.764 225.207 127.661 225.235C128.614 225.235 129.538 225.067 130.379 224.73C131.247 224.366 132.004 223.862 132.648 223.217C133.293 222.573 133.825 221.788 134.19 220.948C134.554 220.079 134.75 219.182 134.75 218.258H140.69C140.69 219.995 140.326 221.676 139.682 223.245C139.009 224.843 138.056 226.244 136.851 227.448C135.647 228.653 134.218 229.578 132.648 230.25C131.079 230.895 129.454 231.203 127.773 231.203H127.689Z"
                                fill="#FF4308" />
                        </svg>